<svg width="240" height="240" viewBox="0 0 240 240" fill="none" xmlns="http://www.w3.org/2000/svg">
<circle cx="120" cy="120" r="118.5" fill="white" stroke="url(#paint0_radial_265_16)" stroke-width="3"/>
<path d="M59.0283 166.933C59.3701 166.933 59.7021 166.991 60.0244 167.108C60.3564 167.226 60.6738 167.396 60.9766 167.621C61.0254 167.67 61.0791 167.719 61.1377 167.768C61.1865 167.719 61.2402 167.67 61.2988 167.621C61.6016 167.396 61.9141 167.226 62.2363 167.108C62.5684 166.991 62.9004 166.933 63.2324 166.933C63.5742 166.933 63.9062 166.991 64.2285 167.108C64.5605 167.226 64.873 167.401 65.166 167.636C65.4688 167.86 65.7324 168.163 65.957 168.544C66.1914 168.925 66.3086 169.379 66.3086 169.906V175.194C66.25 175.78 65.9277 176.098 65.3418 176.146C65.0684 176.146 64.8291 176.059 64.624 175.883C64.4287 175.697 64.3311 175.468 64.3311 175.194V170.023C64.3311 169.789 64.2871 169.594 64.1992 169.438C64.1113 169.271 64.0137 169.145 63.9062 169.057C63.7988 168.959 63.6865 168.891 63.5693 168.852C63.4521 168.803 63.335 168.778 63.2178 168.778C63.1006 168.778 62.9834 168.803 62.8662 168.852C62.7588 168.891 62.6514 168.959 62.5439 169.057C62.4365 169.145 62.3389 169.271 62.251 169.438C62.1631 169.594 62.1143 169.789 62.1045 170.023V175.194C62.0459 175.78 61.7236 176.098 61.1377 176.146C60.8643 176.146 60.625 176.059 60.4199 175.883C60.2246 175.697 60.127 175.468 60.127 175.194V170.023C60.127 169.789 60.083 169.594 59.9951 169.438C59.9072 169.271 59.8096 169.145 59.7021 169.057C59.5947 168.959 59.4824 168.891 59.3652 168.852C59.248 168.803 59.1309 168.778 59.0137 168.778C58.8965 168.778 58.7793 168.803 58.6621 168.852C58.5547 168.891 58.4473 168.959 58.3398 169.057C58.2324 169.145 58.1348 169.271 58.0469 169.438C57.959 169.594 57.9102 169.789 57.9004 170.023V175.194C57.8516 175.78 57.5342 176.098 56.9482 176.146C56.6748 176.146 56.4355 176.059 56.2305 175.883C56.0352 175.697 55.9375 175.468 55.9375 175.194V169.906C55.957 169.379 56.0791 168.925 56.3037 168.544C56.5283 168.163 56.792 167.86 57.0947 167.636C57.3975 167.401 57.71 167.226 58.0322 167.108C58.3643 166.991 58.6963 166.933 59.0283 166.933ZM67.8467 174.989C67.8467 174.716 67.9395 174.486 68.125 174.301C68.3203 174.105 68.5547 174.008 68.8281 174.008H71.6406V169.291H68.8281C68.5547 169.291 68.3252 169.193 68.1396 168.998C67.9443 168.812 67.8467 168.583 67.8467 168.31C67.8467 168.036 67.9395 167.807 68.125 167.621C68.3203 167.426 68.5547 167.328 68.8281 167.328H76.416C76.6895 167.328 76.9238 167.421 77.1191 167.606C77.3047 167.802 77.3975 168.036 77.3975 168.31C77.3975 168.583 77.2998 168.817 77.1045 169.013C76.9189 169.198 76.6895 169.291 76.416 169.291H73.6182V174.008H76.416C76.6895 174.008 76.9238 174.101 77.1191 174.286C77.3047 174.481 77.3975 174.716 77.3975 174.989C77.3975 175.263 77.2998 175.497 77.1045 175.692C76.9189 175.878 76.6895 175.971 76.416 175.971H68.8281C68.5547 175.971 68.3252 175.873 68.1396 175.678C67.9443 175.492 67.8467 175.263 67.8467 174.989ZM83.5791 166.933C84.0869 166.933 84.585 166.991 85.0732 167.108C85.5713 167.226 86.0449 167.401 86.4941 167.636C86.9434 167.86 87.3389 168.163 87.6807 168.544C88.0322 168.925 88.2227 169.379 88.252 169.906V170.521V175.194C88.1934 175.78 87.8711 176.098 87.2852 176.146C87.0117 176.146 86.7725 176.059 86.5674 175.883C86.3721 175.697 86.2744 175.468 86.2744 175.194V170.36C86.2549 170.058 86.1377 169.809 85.9229 169.613C85.7178 169.408 85.4834 169.247 85.2197 169.13C84.9658 169.013 84.6973 168.925 84.4141 168.866C84.1406 168.808 83.8623 168.778 83.5791 168.778C83.2959 168.778 83.0127 168.808 82.7295 168.866C82.4561 168.925 82.1875 169.013 81.9238 169.13C81.6699 169.247 81.4355 169.408 81.2207 169.613C81.0156 169.809 80.9033 170.058 80.8838 170.36V175.194C80.835 175.78 80.5176 176.098 79.9316 176.146C79.6582 176.146 79.4189 176.059 79.2139 175.883C79.0186 175.697 78.9209 175.468 78.9209 175.194V170.521V169.906C78.9502 169.379 79.1357 168.925 79.4775 168.544C79.8193 168.163 80.2148 167.86 80.6641 167.636C81.1133 167.401 81.582 167.226 82.0703 167.108C82.5684 166.991 83.0713 166.933 83.5791 166.933ZM96.4551 167.328C97.1387 167.367 97.7002 167.631 98.1396 168.119C98.5791 168.598 98.8965 169.145 99.0918 169.76C99.2871 170.375 99.3848 171.005 99.3848 171.649C99.3848 172.294 99.2871 172.924 99.0918 173.539C98.9062 174.154 98.5889 174.706 98.1396 175.194C97.7002 175.673 97.1387 175.932 96.4551 175.971H91.0645C90.8008 175.961 90.5762 175.868 90.3906 175.692C90.2148 175.507 90.1221 175.282 90.1123 175.019V171.386C90.1221 171.112 90.2246 170.888 90.4199 170.712C90.6152 170.526 90.8496 170.434 91.123 170.434C91.3867 170.443 91.6113 170.541 91.7969 170.727C91.9824 170.902 92.0801 171.122 92.0898 171.386V173.612C92.0898 173.876 92.2266 174.008 92.5 174.008H95.957C96.3281 173.988 96.6357 173.847 96.8799 173.583C97.124 173.319 97.2998 173.021 97.4072 172.689C97.5244 172.348 97.583 172.001 97.583 171.649C97.583 171.298 97.5244 170.956 97.4072 170.624C97.2998 170.282 97.124 169.979 96.8799 169.716C96.6357 169.452 96.3281 169.311 95.957 169.291H91.0645C90.4785 169.242 90.1611 168.925 90.1123 168.339C90.1123 168.065 90.2002 167.831 90.376 167.636C90.5615 167.44 90.791 167.338 91.0645 167.328H96.4551ZM102.959 175.194C102.9 175.78 102.578 176.098 101.992 176.146C101.719 176.146 101.479 176.059 101.274 175.883C101.079 175.697 100.981 175.468 100.981 175.194V168.28C100.991 168.007 101.094 167.782 101.289 167.606C101.484 167.421 101.719 167.328 101.992 167.328H108.145C109.004 167.357 109.653 167.548 110.093 167.899C110.532 168.241 110.85 168.632 111.045 169.071C111.24 169.511 111.338 169.955 111.338 170.404C111.338 170.873 111.24 171.327 111.045 171.767C110.859 172.206 110.542 172.602 110.093 172.953C109.653 173.295 109.092 173.461 108.408 173.451H104.717C104.443 173.451 104.214 173.354 104.028 173.158C103.833 172.973 103.735 172.743 103.735 172.47C103.735 172.196 103.828 171.967 104.014 171.781C104.209 171.586 104.443 171.488 104.717 171.488H108.496C108.682 171.488 108.833 171.43 108.95 171.312C109.077 171.186 109.17 171.044 109.229 170.888C109.287 170.722 109.316 170.556 109.316 170.39C109.316 170.233 109.287 170.077 109.229 169.921C109.17 169.755 109.077 169.613 108.95 169.496C108.833 169.369 108.682 169.301 108.496 169.291H103.34C103.086 169.301 102.959 169.428 102.959 169.672V175.194ZM116.187 173.7C116.187 173.427 116.279 173.197 116.465 173.012C116.66 172.816 116.895 172.719 117.168 172.719H119.409L119.028 171.635C118.872 171.234 118.716 170.858 118.56 170.507C118.413 170.146 118.242 169.818 118.047 169.525C117.871 169.232 117.671 169.076 117.446 169.057C117.212 169.076 117.002 169.232 116.816 169.525C116.631 169.818 116.46 170.146 116.304 170.507C116.157 170.858 116.006 171.234 115.85 171.635L114.458 175.443C114.36 175.648 114.233 175.819 114.077 175.956C113.931 176.083 113.706 176.146 113.403 176.146C113.12 176.146 112.886 176.049 112.7 175.854C112.524 175.658 112.446 175.424 112.466 175.15C112.476 175.023 112.505 174.906 112.554 174.799L114.165 170.639C114.614 169.545 115.063 168.661 115.513 167.987C115.952 167.323 116.597 166.986 117.446 166.977C118.286 166.986 118.926 167.323 119.365 167.987C119.814 168.642 120.264 169.525 120.713 170.639L122.324 174.799C122.373 174.906 122.402 175.023 122.412 175.15C122.432 175.424 122.349 175.658 122.163 175.854C121.987 176.049 121.758 176.146 121.475 176.146C121.152 176.146 120.913 176.083 120.757 175.956C120.61 175.819 120.488 175.648 120.391 175.443L120.112 174.682H117.168C116.895 174.682 116.665 174.584 116.479 174.389C116.284 174.203 116.187 173.974 116.187 173.7ZM125.854 175.224C125.796 175.81 125.474 176.127 124.888 176.176C124.614 176.176 124.375 176.088 124.17 175.912C123.975 175.727 123.877 175.497 123.877 175.224V168.28C123.887 168.007 123.989 167.782 124.185 167.606C124.38 167.421 124.614 167.328 124.888 167.328H125.605H127.407H131.025C131.084 167.328 131.143 167.333 131.201 167.343H131.289C131.973 167.362 132.534 167.519 132.974 167.812C133.413 168.104 133.73 168.441 133.926 168.822C134.121 169.193 134.219 169.569 134.219 169.95C134.219 170.341 134.121 170.727 133.926 171.107C133.74 171.479 133.423 171.811 132.974 172.104C132.534 172.396 131.973 172.553 131.289 172.572H128.711C128.789 173.061 128.95 173.422 129.194 173.656C129.429 173.891 129.727 174.008 130.088 174.008H133.252C133.525 174.018 133.75 174.12 133.926 174.315C134.111 174.511 134.204 174.745 134.204 175.019C134.194 175.282 134.097 175.507 133.911 175.692C133.735 175.868 133.516 175.961 133.252 175.971H129.824C129.102 175.98 128.447 175.697 127.861 175.121C127.275 174.545 126.919 173.861 126.792 173.07C126.616 172.191 126.528 171.698 126.528 171.591C126.528 171.317 126.621 171.088 126.807 170.902C127.002 170.707 127.236 170.609 127.51 170.609H131.377C131.562 170.6 131.714 170.561 131.831 170.492C131.958 170.414 132.051 170.331 132.109 170.243C132.168 170.146 132.197 170.048 132.197 169.95C132.197 169.853 132.168 169.76 132.109 169.672C132.051 169.574 131.958 169.491 131.831 169.423C131.714 169.345 131.562 169.301 131.377 169.291H127.407H126.235C125.981 169.301 125.854 169.428 125.854 169.672V175.224ZM138.525 167.328H139.199H144.18C144.453 167.338 144.678 167.44 144.854 167.636C145.039 167.831 145.132 168.065 145.132 168.339C145.083 168.925 144.766 169.242 144.18 169.291H139.023C138.652 169.311 138.345 169.452 138.101 169.716C137.856 169.979 137.676 170.282 137.559 170.624C137.451 170.956 137.397 171.298 137.397 171.649C137.397 172.001 137.451 172.348 137.559 172.689C137.676 173.021 137.856 173.319 138.101 173.583C138.345 173.847 138.652 173.988 139.023 174.008H144.18C144.453 174.018 144.678 174.12 144.854 174.315C145.039 174.511 145.132 174.745 145.132 175.019C145.122 175.282 145.024 175.507 144.839 175.692C144.663 175.868 144.443 175.961 144.18 175.971H138.804H138.525C137.842 175.932 137.275 175.673 136.826 175.194C136.387 174.706 136.069 174.154 135.874 173.539C135.688 172.924 135.596 172.294 135.596 171.649C135.596 171.005 135.693 170.375 135.889 169.76C136.084 169.145 136.401 168.598 136.841 168.119C137.28 167.631 137.842 167.367 138.525 167.328ZM145.103 171.591C145.103 171.864 145.005 172.094 144.81 172.279C144.624 172.475 144.395 172.572 144.121 172.572H139.697C139.424 172.572 139.189 172.479 138.994 172.294C138.809 172.099 138.716 171.864 138.716 171.591C138.716 171.317 138.809 171.083 138.994 170.888C139.189 170.702 139.424 170.609 139.697 170.609H144.121C144.395 170.609 144.624 170.707 144.81 170.902C145.005 171.088 145.103 171.317 145.103 171.591ZM151.27 166.933C151.777 166.933 152.275 166.991 152.764 167.108C153.262 167.226 153.735 167.401 154.185 167.636C154.634 167.86 155.029 168.163 155.371 168.544C155.723 168.925 155.913 169.379 155.942 169.906V170.521V175.194C155.884 175.78 155.562 176.098 154.976 176.146C154.702 176.146 154.463 176.059 154.258 175.883C154.062 175.697 153.965 175.468 153.965 175.194V170.36C153.945 170.058 153.828 169.809 153.613 169.613C153.408 169.408 153.174 169.247 152.91 169.13C152.656 169.013 152.388 168.925 152.104 168.866C151.831 168.808 151.553 168.778 151.27 168.778C150.986 168.778 150.703 168.808 150.42 168.866C150.146 168.925 149.878 169.013 149.614 169.13C149.36 169.247 149.126 169.408 148.911 169.613C148.706 169.809 148.594 170.058 148.574 170.36V175.194C148.525 175.78 148.208 176.098 147.622 176.146C147.349 176.146 147.109 176.059 146.904 175.883C146.709 175.697 146.611 175.468 146.611 175.194V170.521V169.906C146.641 169.379 146.826 168.925 147.168 168.544C147.51 168.163 147.905 167.86 148.354 167.636C148.804 167.401 149.272 167.226 149.761 167.108C150.259 166.991 150.762 166.933 151.27 166.933ZM157.51 168.31C157.51 168.036 157.603 167.807 157.788 167.621C157.983 167.426 158.218 167.328 158.491 167.328H167.017C167.29 167.328 167.524 167.421 167.72 167.606C167.905 167.802 167.998 168.036 167.998 168.31C167.998 168.583 167.9 168.817 167.705 169.013C167.52 169.198 167.29 169.291 167.017 169.291H163.75V175.224C163.691 175.81 163.369 176.127 162.783 176.176C162.51 176.176 162.271 176.088 162.065 175.912C161.87 175.727 161.772 175.497 161.772 175.224V169.291H158.491C158.218 169.291 157.988 169.193 157.803 168.998C157.607 168.812 157.51 168.583 157.51 168.31ZM179.014 168.31C179.014 168.583 178.916 168.812 178.721 168.998C178.535 169.193 178.306 169.291 178.032 169.291H172.173C171.987 169.301 171.831 169.345 171.704 169.423C171.587 169.491 171.499 169.574 171.44 169.672C171.382 169.76 171.353 169.853 171.353 169.95C171.353 170.048 171.382 170.146 171.44 170.243C171.499 170.331 171.587 170.414 171.704 170.492C171.831 170.561 171.987 170.6 172.173 170.609H176.333C177.017 170.629 177.578 170.79 178.018 171.093C178.467 171.386 178.784 171.728 178.97 172.118C179.165 172.499 179.263 172.89 179.263 173.29C179.263 173.681 179.165 174.071 178.97 174.462C178.774 174.843 178.457 175.185 178.018 175.487C177.578 175.78 177.017 175.927 176.333 175.927H176.245C176.187 175.937 176.128 175.941 176.069 175.941H170.532C170.259 175.941 170.024 175.849 169.829 175.663C169.644 175.468 169.551 175.233 169.551 174.96C169.551 174.687 169.648 174.457 169.844 174.271C170.029 174.076 170.259 173.979 170.532 173.979H176.421C176.606 173.988 176.758 173.954 176.875 173.876C177.002 173.798 177.095 173.71 177.153 173.612C177.212 173.505 177.241 173.397 177.241 173.29C177.241 173.222 177.212 173.129 177.153 173.012C177.095 172.885 177.002 172.782 176.875 172.704C176.758 172.626 176.606 172.582 176.421 172.572H172.261C171.577 172.553 171.011 172.396 170.562 172.104C170.122 171.811 169.805 171.479 169.609 171.107C169.424 170.727 169.331 170.341 169.331 169.95C169.331 169.569 169.429 169.193 169.624 168.822C169.819 168.441 170.137 168.104 170.576 167.812C171.016 167.519 171.577 167.362 172.261 167.343H172.349C172.407 167.333 172.466 167.328 172.524 167.328H178.032C178.306 167.328 178.535 167.426 178.721 167.621C178.916 167.807 179.014 168.036 179.014 168.31ZM182.412 176.205C182.021 176.205 181.694 176.068 181.431 175.795C181.177 175.521 181.05 175.18 181.05 174.77C181.05 174.359 181.177 174.018 181.431 173.744C181.694 173.471 182.021 173.334 182.412 173.334C182.803 173.334 183.13 173.471 183.394 173.744C183.657 174.018 183.789 174.359 183.789 174.77C183.789 175.18 183.657 175.521 183.394 175.795C183.13 176.068 182.803 176.205 182.412 176.205Z" fill="#8F3BF7"/>
<g filter="url(#filter0_d_265_16)">
<path d="M58.375 76.125C61.2917 76.125 64.125 76.625 66.875 77.625C69.7083 78.625 72.4167 80.0833 75 82C75.4167 82.4167 75.875 82.8333 76.375 83.25C76.7917 82.8333 77.25 82.4167 77.75 82C80.3333 80.0833 83 78.625 85.75 77.625C88.5833 76.625 91.4167 76.125 94.25 76.125C97.1667 76.125 100 76.625 102.75 77.625C105.583 78.625 108.25 80.125 110.75 82.125C113.333 84.0417 115.583 86.625 117.5 89.875C119.5 93.125 120.5 97 120.5 101.5V128.125C120 133.125 117.25 135.833 112.25 136.25C109.917 136.25 107.875 135.5 106.125 134C104.458 132.417 103.625 130.458 103.625 128.125V102.5C103.625 100.5 103.25 98.8333 102.5 97.5C101.75 96.0833 100.917 95 100 94.25C99.0833 93.4167 98.125 92.8333 97.125 92.5C96.125 92.0833 95.125 91.875 94.125 91.875C93.125 91.875 92.125 92.0833 91.125 92.5C90.2083 92.8333 89.2917 93.4167 88.375 94.25C87.4583 95 86.625 96.0833 85.875 97.5C85.125 98.8333 84.7083 100.5 84.625 102.5V128.125C84.125 133.125 81.375 135.833 76.375 136.25C74.0417 136.25 72 135.5 70.25 134C68.5833 132.417 67.75 130.458 67.75 128.125V102.5C67.75 100.5 67.375 98.8333 66.625 97.5C65.875 96.0833 65.0417 95 64.125 94.25C63.2083 93.4167 62.25 92.8333 61.25 92.5C60.25 92.0833 59.25 91.875 58.25 91.875C57.25 91.875 56.25 92.0833 55.25 92.5C54.3333 92.8333 53.4167 93.4167 52.5 94.25C51.5833 95 50.75 96.0833 50 97.5C49.25 98.8333 48.8333 100.5 48.75 102.5V128.125C48.3333 133.125 45.625 135.833 40.625 136.25C38.2917 136.25 36.25 135.5 34.5 134C32.8333 132.417 32 130.458 32 128.125V101.5C32.1667 97 33.2083 93.125 35.125 89.875C37.0417 86.625 39.2917 84.0417 41.875 82.125C44.4583 80.125 47.125 78.625 49.875 77.625C52.7083 76.625 55.5417 76.125 58.375 76.125Z" fill="url(#paint1_radial_265_16)"/>
</g>
<g filter="url(#filter1_d_265_16)">
<path d="M141.75 145.625C141.25 150.625 138.5 153.333 133.5 153.75C131.167 153.75 129.125 152.958 127.375 151.375C125.708 149.875 124.875 147.958 124.875 145.625V86.125C124.958 83.7917 125.833 81.875 127.5 80.375C129.167 78.7917 131.167 78 133.5 78H186C193.333 78.25 198.875 80 202.625 83.25C206.375 86.4167 209.083 90.0417 210.75 94.125C212.417 98.125 213.25 102.208 213.25 106.375C213.25 110.708 212.417 114.917 210.75 119C209.167 123 206.458 126.625 202.625 129.875C198.875 133.042 194.083 134.667 188.25 134.75H156.75C154.417 134.75 152.458 133.917 150.875 132.25C149.208 130.667 148.375 128.708 148.375 126.375C148.375 124.042 149.167 122.083 150.75 120.5C152.417 118.833 154.417 118 156.75 118H188.75C190.333 118 191.708 117.375 192.875 116.125C194.042 114.792 194.875 113.292 195.375 111.625C195.958 109.875 196.25 108.167 196.25 106.5C196.25 104.75 195.958 103.042 195.375 101.375C194.875 99.625 194.042 98.125 192.875 96.875C191.708 95.5417 190.333 94.8333 188.75 94.75H145C142.833 94.8333 141.75 95.9167 141.75 98V145.625Z" fill="url(#paint2_radial_265_16)"/>
</g>
<defs>
<filter id="filter0_d_265_16" x="28" y="76.125" width="96.5" height="68.125" filterUnits="userSpaceOnUse" color-interpolation-filters="sRGB">
<feFlood flood-opacity="0" result="BackgroundImageFix"/>
<feColorMatrix in="SourceAlpha" type="matrix" values="0 0 0 0 0 0 0 0 0 0 0 0 0 0 0 0 0 0 127 0" result="hardAlpha"/>
<feOffset dy="4"/>
<feGaussianBlur stdDeviation="2"/>
<feComposite in2="hardAlpha" operator="out"/>
<feColorMatrix type="matrix" values="0 0 0 0 0 0 0 0 0 0 0 0 0 0 0 0 0 0 0.25 0"/>
<feBlend mode="normal" in2="BackgroundImageFix" result="effect1_dropShadow_265_16"/>
<feBlend mode="normal" in="SourceGraphic" in2="effect1_dropShadow_265_16" result="shape"/>
</filter>
<filter id="filter1_d_265_16" x="120.875" y="78" width="96.375" height="83.75" filterUnits="userSpaceOnUse" color-interpolation-filters="sRGB">
<feFlood flood-opacity="0" result="BackgroundImageFix"/>
<feColorMatrix in="SourceAlpha" type="matrix" values="0 0 0 0 0 0 0 0 0 0 0 0 0 0 0 0 0 0 127 0" result="hardAlpha"/>
<feOffset dy="4"/>
<feGaussianBlur stdDeviation="2"/>
<feComposite in2="hardAlpha" operator="out"/>
<feColorMatrix type="matrix" values="0 0 0 0 0 0 0 0 0 0 0 0 0 0 0 0 0 0 0.25 0"/>
<feBlend mode="normal" in2="BackgroundImageFix" result="effect1_dropShadow_265_16"/>
<feBlend mode="normal" in="SourceGraphic" in2="effect1_dropShadow_265_16" result="shape"/>
</filter>
<radialGradient id="paint0_radial_265_16" cx="0" cy="0" r="1" gradientUnits="userSpaceOnUse" gradientTransform="translate(67.5 72.5) rotate(55.9892) scale(346.832)">
<stop stop-color="#C1A4FF"/>
<stop offset="1" stop-color="#7631CC"/>
</radialGradient>
<radialGradient id="paint1_radial_265_16" cx="0" cy="0" r="1" gradientUnits="userSpaceOnUse" gradientTransform="translate(129.5 104.5) scale(105.5 79.5)">
<stop stop-color="#C1A4FF"/>
<stop offset="0.695009" stop-color="#7631CC"/>
</radialGradient>
<radialGradient id="paint2_radial_265_16" cx="0" cy="0" r="1" gradientUnits="userSpaceOnUse" gradientTransform="translate(164.5 125.5) scale(47.5 100.5)">
<stop stop-color="#C1A4FF"/>
<stop offset="0.695009" stop-color="#7631CC"/>
</radialGradient>
</defs>
</svg>
